<svg viewBox="-16 -32 880 192" width="880" height="192" xmlns="http://www.w3.org/2000/svg"><style>@keyframes c0{5.98%{fill:var(--c1)}6%,to{fill:var(--ce)}}@keyframes c1{90.45%{fill:var(--c4)}90.47%,to{fill:var(--ce)}}@keyframes c2{8.98%{fill:var(--c1)}9%,to{fill:var(--ce)}}@keyframes c3{92.09%{fill:var(--c4)}92.11%,to{fill:var(--ce)}}@keyframes c4{89.64%{fill:var(--c4)}89.66%,to{fill:var(--ce)}}@keyframes c5{53.94%{fill:var(--c2)}53.96%,to{fill:var(--ce)}}@keyframes c6{90.18%{fill:var(--c4)}90.2%,to{fill:var(--ce)}}@keyframes c7{53.12%{fill:var(--c2)}53.14%,to{fill:var(--ce)}}@keyframes c8{10.34%{fill:var(--c1)}10.36%,to{fill:var(--ce)}}@keyframes c9{37.59%{fill:var(--c1)}37.61%,to{fill:var(--ce)}}@keyframes ca{88.55%{fill:var(--c4)}88.57%,to{fill:var(--ce)}}@keyframes cb{51.22%{fill:var(--c2)}51.24%,to{fill:var(--ce)}}@keyframes cc{11.16%{fill:var(--c1)}11.18%,to{fill:var(--ce)}}@keyframes cd{50.67%{fill:var(--c2)}50.69%,to{fill:var(--ce)}}@keyframes ce{52.03%{fill:var(--c2)}52.05%,to{fill:var(--ce)}}@keyframes cf{51.49%{fill:var(--c2)}51.51%,to{fill:var(--ce)}}@keyframes cg{11.43%{fill:var(--c1)}11.45%,to{fill:var(--ce)}}@keyframes ch{47.95%{fill:var(--c2)}47.97%,to{fill:var(--ce)}}@keyframes ci{12.8%{fill:var(--c1)}12.82%,to{fill:var(--ce)}}@keyframes cj{48.76%{fill:var(--c2)}48.78%,to{fill:var(--ce)}}@keyframes ck{13.61%{fill:var(--c1)}13.63%,to{fill:var(--ce)}}@keyframes cl{13.34%{fill:var(--c1)}13.36%,to{fill:var(--ce)}}@keyframes cm{13.07%{fill:var(--c1)}13.09%,to{fill:var(--ce)}}@keyframes cn{15.52%{fill:var(--c1)}15.54%,to{fill:var(--ce)}}@keyframes co{15.79%{fill:var(--c1)}15.81%,to{fill:var(--ce)}}@keyframes cp{14.16%{fill:var(--c1)}14.18%,to{fill:var(--ce)}}@keyframes cq{13.89%{fill:var(--c1)}13.91%,to{fill:var(--ce)}}@keyframes cr{77.1%{fill:var(--c4)}77.12%,to{fill:var(--ce)}}@keyframes cs{43.04%{fill:var(--c2)}43.06%,to{fill:var(--ce)}}@keyframes ct{47.13%{fill:var(--c2)}47.15%,to{fill:var(--ce)}}@keyframes cu{17.97%{fill:var(--c1)}17.99%,to{fill:var(--ce)}}@keyframes cv{16.34%{fill:var(--c1)}16.36%,to{fill:var(--ce)}}@keyframes cw{76.56%{fill:var(--c4)}76.58%,to{fill:var(--ce)}}@keyframes cx{42.77%{fill:var(--c1)}42.79%,to{fill:var(--ce)}}@keyframes cy{75.19%{fill:var(--c3)}75.21%,to{fill:var(--ce)}}@keyframes cz{17.7%{fill:var(--c1)}17.72%,to{fill:var(--ce)}}@keyframes c10{16.88%{fill:var(--c1)}16.9%,to{fill:var(--ce)}}@keyframes c11{16.61%{fill:var(--c1)}16.63%,to{fill:var(--ce)}}@keyframes c12{20.7%{fill:var(--c1)}20.72%,to{fill:var(--ce)}}@keyframes c13{20.97%{fill:var(--c1)}20.99%,to{fill:var(--ce)}}@keyframes c14{75.74%{fill:var(--c4)}75.76%,to{fill:var(--ce)}}@keyframes c15{46.04%{fill:var(--c2)}46.06%,to{fill:var(--ce)}}@keyframes c16{17.43%{fill:var(--c1)}17.45%,to{fill:var(--ce)}}@keyframes c17{17.16%{fill:var(--c1)}17.18%,to{fill:var(--ce)}}@keyframes c18{74.1%{fill:var(--c3)}74.12%,to{fill:var(--ce)}}@keyframes c19{21.24%{fill:var(--c1)}21.26%,to{fill:var(--ce)}}@keyframes c1a{21.52%{fill:var(--c1)}21.54%,to{fill:var(--ce)}}@keyframes c1b{21.79%{fill:var(--c1)}21.81%,to{fill:var(--ce)}}@keyframes c1c{45.49%{fill:var(--c2)}45.51%,to{fill:var(--ce)}}@keyframes c1d{45.22%{fill:var(--c1)}45.24%,to{fill:var(--ce)}}@keyframes c1e{79.28%{fill:var(--c4)}79.3%,to{fill:var(--ce)}}@keyframes c1f{33.23%{fill:var(--c1)}33.25%,to{fill:var(--ce)}}@keyframes c1g{22.33%{fill:var(--c1)}22.35%,to{fill:var(--ce)}}@keyframes c1h{73.29%{fill:var(--c3)}73.31%,to{fill:var(--ce)}}@keyframes c1i{60.48%{fill:var(--c2)}60.5%,to{fill:var(--ce)}}@keyframes c1j{23.42%{fill:var(--c1)}23.44%,to{fill:var(--ce)}}@keyframes c1k{23.15%{fill:var(--c1)}23.17%,to{fill:var(--ce)}}@keyframes c1l{31.05%{fill:var(--c1)}31.07%,to{fill:var(--ce)}}@keyframes c1m{63.21%{fill:var(--c2)}63.23%,to{fill:var(--ce)}}@keyframes c1n{23.7%{fill:var(--c1)}23.72%,to{fill:var(--ce)}}@keyframes c1o{30.78%{fill:var(--c1)}30.8%,to{fill:var(--ce)}}@keyframes c1p{62.12%{fill:var(--c2)}62.14%,to{fill:var(--ce)}}@keyframes c1q{30.24%{fill:var(--c1)}30.26%,to{fill:var(--ce)}}@keyframes c1r{64.02%{fill:var(--c2)}64.04%,to{fill:var(--ce)}}@keyframes c1s{24.51%{fill:var(--c1)}24.53%,to{fill:var(--ce)}}@keyframes c1t{29.69%{fill:var(--c1)}29.71%,to{fill:var(--ce)}}@keyframes c1u{27.78%{fill:var(--c1)}27.8%,to{fill:var(--ce)}}@keyframes c1v{29.42%{fill:var(--c1)}29.44%,to{fill:var(--ce)}}@keyframes c1w{27.51%{fill:var(--c1)}27.53%,to{fill:var(--ce)}}@keyframes c1x{67.29%{fill:var(--c2)}67.31%,to{fill:var(--ce)}}@keyframes c1y{69.74%{fill:var(--c3)}69.76%,to{fill:var(--ce)}}@keyframes c1z{65.11%{fill:var(--c2)}65.13%,to{fill:var(--ce)}}@keyframes c20{82.82%{fill:var(--c4)}82.84%,to{fill:var(--ce)}}@keyframes c21{25.33%{fill:var(--c1)}25.35%,to{fill:var(--ce)}}@keyframes c22{68.11%{fill:var(--c3)}68.13%,to{fill:var(--ce)}}@keyframes c23{67.02%{fill:var(--c2)}67.04%,to{fill:var(--ce)}}@keyframes c24{26.15%{fill:var(--c1)}26.17%,to{fill:var(--ce)}}@keyframes u0{5.98%{transform:scale(0,1)}6%,8.98%{transform:scale(.02,1)}10.34%,9%{transform:scale(.05,1)}10.36%,11.16%{transform:scale(.07,1)}11.18%,11.43%{transform:scale(.1,1)}11.45%,12.8%{transform:scale(.12,1)}12.82%,13.07%{transform:scale(.14,1)}13.09%,13.34%{transform:scale(.17,1)}13.36%,13.61%{transform:scale(.19,1)}13.63%,13.89%{transform:scale(.21,1)}13.91%,14.16%{transform:scale(.24,1)}14.18%,15.52%{transform:scale(.26,1)}15.54%,15.79%{transform:scale(.29,1)}15.81%,16.34%{transform:scale(.31,1)}16.36%,16.61%{transform:scale(.33,1)}16.63%,16.88%{transform:scale(.36,1)}16.9%,17.16%{transform:scale(.38,1)}17.18%,17.43%{transform:scale(.4,1)}17.45%,17.7%{transform:scale(.43,1)}17.72%,17.97%{transform:scale(.45,1)}17.99%,20.7%{transform:scale(.48,1)}20.72%,20.97%{transform:scale(.5,1)}20.99%,21.24%{transform:scale(.52,1)}21.26%,21.52%{transform:scale(.55,1)}21.54%,21.79%{transform:scale(.57,1)}21.81%,22.33%{transform:scale(.6,1)}22.35%,23.15%{transform:scale(.62,1)}23.17%,23.42%{transform:scale(.64,1)}23.44%,23.7%{transform:scale(.67,1)}23.72%,24.51%{transform:scale(.69,1)}24.53%,25.33%{transform:scale(.71,1)}25.35%,26.15%{transform:scale(.74,1)}26.17%,27.51%{transform:scale(.76,1)}27.53%,27.78%{transform:scale(.79,1)}27.8%,29.42%{transform:scale(.81,1)}29.44%,29.69%{transform:scale(.83,1)}29.71%,30.24%{transform:scale(.86,1)}30.26%,30.78%{transform:scale(.88,1)}30.8%,31.05%{transform:scale(.9,1)}31.07%,33.23%{transform:scale(.93,1)}33.25%,37.59%{transform:scale(.95,1)}37.61%,42.77%{transform:scale(.98,1)}42.79%,to{transform:scale(1,1)}}@keyframes u1{43.04%{transform:scale(0,1)}43.06%,to{transform:scale(1,1)}}@keyframes u2{45.22%{transform:scale(0,1)}45.24%,to{transform:scale(1,1)}}@keyframes u3{45.49%{transform:scale(0,1)}45.51%,46.04%{transform:scale(.06,1)}46.06%,47.13%{transform:scale(.11,1)}47.15%,47.95%{transform:scale(.17,1)}47.97%,48.76%{transform:scale(.22,1)}48.78%,50.67%{transform:scale(.28,1)}50.69%,51.22%{transform:scale(.33,1)}51.24%,51.49%{transform:scale(.39,1)}51.51%,52.03%{transform:scale(.44,1)}52.05%,53.12%{transform:scale(.5,1)}53.14%,53.94%{transform:scale(.56,1)}53.96%,60.48%{transform:scale(.61,1)}60.5%,62.12%{transform:scale(.67,1)}62.14%,63.21%{transform:scale(.72,1)}63.23%,64.02%{transform:scale(.78,1)}64.04%,65.11%{transform:scale(.83,1)}65.13%,67.02%{transform:scale(.89,1)}67.04%,67.29%{transform:scale(.94,1)}67.31%,to{transform:scale(1,1)}}@keyframes u4{68.11%{transform:scale(0,1)}68.13%,69.74%{transform:scale(.2,1)}69.76%,73.29%{transform:scale(.4,1)}73.31%,74.1%{transform:scale(.6,1)}74.12%,75.19%{transform:scale(.8,1)}75.21%,to{transform:scale(1,1)}}@keyframes u5{75.74%{transform:scale(0,1)}75.76%,76.56%{transform:scale(.1,1)}76.58%,77.1%{transform:scale(.2,1)}77.12%,79.28%{transform:scale(.3,1)}79.3%,82.82%{transform:scale(.4,1)}82.84%,88.55%{transform:scale(.5,1)}88.57%,89.64%{transform:scale(.6,1)}89.66%,90.18%{transform:scale(.7,1)}90.2%,90.45%{transform:scale(.8,1)}90.47%,92.09%{transform:scale(.9,1)}92.11%,to{transform:scale(1,1)}}@keyframes s0{0%,99.73%{transform:translate(0,-16px)}.27%{transform:translate(0,0)}4.9%{transform:translate(272px,0)}5.99%{transform:translate(272px,64px)}54.5%,8.17%{transform:translate(400px,64px)}55.04%,8.72%{transform:translate(400px,96px)}9.54%{transform:translate(448px,96px)}10.35%{transform:translate(448px,48px)}10.63%{transform:translate(464px,48px)}10.9%{transform:translate(464px,64px)}13.08%{transform:translate(592px,64px)}13.62%{transform:translate(592px,32px)}13.9%,43.32%{transform:translate(608px,32px)}14.17%{transform:translate(608px,16px)}14.44%{transform:translate(592px,16px)}15.8%{transform:translate(592px,96px)}16.62%,59.13%,74.39%{transform:translate(640px,96px)}16.89%{transform:translate(640px,80px)}17.17%,73.84%{transform:translate(656px,80px)}17.44%,46.32%{transform:translate(656px,64px)}18.26%{transform:translate(608px,64px)}19.35%,40.6%{transform:translate(608px,0)}19.62%,76.84%{transform:translate(624px,0)}19.89%{transform:translate(624px,-16px)}20.44%,41.69%{transform:translate(656px,-16px)}20.98%,42.23%{transform:translate(656px,16px)}21.25%,77.93%{transform:translate(672px,16px)}21.8%,45.78%{transform:translate(672px,48px)}22.07%{transform:translate(688px,48px)}22.34%{transform:translate(688px,64px)}22.89%{transform:translate(720px,64px)}23.43%{transform:translate(720px,32px)}24.25%{transform:translate(768px,32px)}24.52%{transform:translate(768px,48px)}25.61%{transform:translate(832px,48px)}26.7%{transform:translate(832px,-16px)}27.25%{transform:translate(800px,-16px)}27.52%,64.58%{transform:translate(800px,0)}27.79%{transform:translate(784px,0)}29.43%{transform:translate(784px,96px)}29.7%{transform:translate(768px,96px)}29.97%{transform:translate(768px,80px)}30.52%{transform:translate(736px,80px)}30.79%{transform:translate(736px,96px)}31.06%{transform:translate(720px,96px)}32.7%{transform:translate(720px,0)}33.24%,71.93%{transform:translate(688px,0)}33.51%{transform:translate(688px,-16px)}37.06%{transform:translate(480px,-16px)}37.6%{transform:translate(480px,16px)}37.87%{transform:translate(464px,16px)}38.15%{transform:translate(464px,0)}40.87%{transform:translate(608px,-16px)}42.51%{transform:translate(640px,16px)}42.78%{transform:translate(640px,32px)}44.14%{transform:translate(608px,80px)}45.23%{transform:translate(672px,80px)}46.05%,75.48%{transform:translate(656px,48px)}46.87%{transform:translate(624px,64px)}47.14%{transform:translate(624px,48px)}47.96%{transform:translate(576px,48px)}48.77%{transform:translate(576px,96px)}49.05%{transform:translate(560px,96px)}49.32%{transform:translate(560px,80px)}50.68%{transform:translate(480px,80px)}51.23%{transform:translate(480px,48px)}51.5%{transform:translate(496px,48px)}52.04%{transform:translate(496px,16px)}52.86%{transform:translate(448px,16px)}53.68%{transform:translate(448px,64px)}59.4%{transform:translate(640px,112px)}60.22%{transform:translate(688px,112px)}60.49%{transform:translate(688px,96px)}61.58%{transform:translate(752px,96px)}62.94%{transform:translate(752px,16px)}63.22%{transform:translate(736px,16px)}63.49%{transform:translate(736px,0)}64.85%{transform:translate(800px,16px)}65.4%{transform:translate(832px,16px)}66.49%{transform:translate(832px,80px)}66.76%,67.85%{transform:translate(816px,80px)}67.03%,81.74%{transform:translate(816px,96px)}67.3%{transform:translate(800px,96px)}67.57%{transform:translate(800px,80px)}68.12%{transform:translate(816px,64px)}68.39%{transform:translate(832px,64px)}69.48%{transform:translate(832px,0)}73.3%{transform:translate(688px,80px)}74.11%{transform:translate(656px,96px)}75.2%{transform:translate(640px,48px)}76.29%{transform:translate(656px,0)}77.11%{transform:translate(624px,16px)}79.29%{transform:translate(672px,96px)}82.83%{transform:translate(816px,32px)}89.37%{transform:translate(432px,32px)}90.19%{transform:translate(432px,80px)}90.46%{transform:translate(416px,80px)}90.74%{transform:translate(416px,64px)}91.01%{transform:translate(432px,64px)}92.1%{transform:translate(432px,0)}98.37%{transform:translate(64px,0)}98.64%{transform:translate(64px,-16px)}}@keyframes s1{0%,99.73%{transform:translate(16px,-16px)}.27%{transform:translate(0,-16px)}.54%{transform:translate(0,0)}5.18%{transform:translate(272px,0)}6.27%{transform:translate(272px,64px)}54.77%,8.45%{transform:translate(400px,64px)}55.31%,8.99%{transform:translate(400px,96px)}9.81%{transform:translate(448px,96px)}10.63%{transform:translate(448px,48px)}10.9%{transform:translate(464px,48px)}11.17%{transform:translate(464px,64px)}13.35%{transform:translate(592px,64px)}13.9%{transform:translate(592px,32px)}14.17%,43.6%{transform:translate(608px,32px)}14.44%{transform:translate(608px,16px)}14.71%{transform:translate(592px,16px)}16.08%{transform:translate(592px,96px)}16.89%,59.4%,74.66%{transform:translate(640px,96px)}17.17%{transform:translate(640px,80px)}17.44%,74.11%{transform:translate(656px,80px)}17.71%,46.59%{transform:translate(656px,64px)}18.53%{transform:translate(608px,64px)}19.62%,40.87%{transform:translate(608px,0)}19.89%,77.11%{transform:translate(624px,0)}20.16%{transform:translate(624px,-16px)}20.71%,41.96%{transform:translate(656px,-16px)}21.25%,42.51%{transform:translate(656px,16px)}21.53%,78.2%{transform:translate(672px,16px)}22.07%,46.05%{transform:translate(672px,48px)}22.34%{transform:translate(688px,48px)}22.62%{transform:translate(688px,64px)}23.16%{transform:translate(720px,64px)}23.71%{transform:translate(720px,32px)}24.52%{transform:translate(768px,32px)}24.8%{transform:translate(768px,48px)}25.89%{transform:translate(832px,48px)}26.98%{transform:translate(832px,-16px)}27.52%{transform:translate(800px,-16px)}27.79%,64.85%{transform:translate(800px,0)}28.07%{transform:translate(784px,0)}29.7%{transform:translate(784px,96px)}29.97%{transform:translate(768px,96px)}30.25%{transform:translate(768px,80px)}30.79%{transform:translate(736px,80px)}31.06%{transform:translate(736px,96px)}31.34%{transform:translate(720px,96px)}32.97%{transform:translate(720px,0)}33.51%,72.21%{transform:translate(688px,0)}33.79%{transform:translate(688px,-16px)}37.33%{transform:translate(480px,-16px)}37.87%{transform:translate(480px,16px)}38.15%{transform:translate(464px,16px)}38.42%{transform:translate(464px,0)}41.14%{transform:translate(608px,-16px)}42.78%{transform:translate(640px,16px)}43.05%{transform:translate(640px,32px)}44.41%{transform:translate(608px,80px)}45.5%{transform:translate(672px,80px)}46.32%,75.75%{transform:translate(656px,48px)}47.14%{transform:translate(624px,64px)}47.41%{transform:translate(624px,48px)}48.23%{transform:translate(576px,48px)}49.05%{transform:translate(576px,96px)}49.32%{transform:translate(560px,96px)}49.59%{transform:translate(560px,80px)}50.95%{transform:translate(480px,80px)}51.5%{transform:translate(480px,48px)}51.77%{transform:translate(496px,48px)}52.32%{transform:translate(496px,16px)}53.13%{transform:translate(448px,16px)}53.95%{transform:translate(448px,64px)}59.67%{transform:translate(640px,112px)}60.49%{transform:translate(688px,112px)}60.76%{transform:translate(688px,96px)}61.85%{transform:translate(752px,96px)}63.22%{transform:translate(752px,16px)}63.49%{transform:translate(736px,16px)}63.76%{transform:translate(736px,0)}65.12%{transform:translate(800px,16px)}65.67%{transform:translate(832px,16px)}66.76%{transform:translate(832px,80px)}67.03%,68.12%{transform:translate(816px,80px)}67.3%,82.02%{transform:translate(816px,96px)}67.57%{transform:translate(800px,96px)}67.85%{transform:translate(800px,80px)}68.39%{transform:translate(816px,64px)}68.66%{transform:translate(832px,64px)}69.75%{transform:translate(832px,0)}73.57%{transform:translate(688px,80px)}74.39%{transform:translate(656px,96px)}75.48%{transform:translate(640px,48px)}76.57%{transform:translate(656px,0)}77.38%{transform:translate(624px,16px)}79.56%{transform:translate(672px,96px)}83.11%{transform:translate(816px,32px)}89.65%{transform:translate(432px,32px)}90.46%{transform:translate(432px,80px)}90.74%{transform:translate(416px,80px)}91.01%{transform:translate(416px,64px)}91.28%{transform:translate(432px,64px)}92.37%{transform:translate(432px,0)}98.64%{transform:translate(64px,0)}98.91%{transform:translate(64px,-16px)}}@keyframes s2{0%,99.73%{transform:translate(32px,-16px)}.54%{transform:translate(0,-16px)}.82%{transform:translate(0,0)}5.45%{transform:translate(272px,0)}6.54%{transform:translate(272px,64px)}55.04%,8.72%{transform:translate(400px,64px)}55.59%,9.26%{transform:translate(400px,96px)}10.08%{transform:translate(448px,96px)}10.9%{transform:translate(448px,48px)}11.17%{transform:translate(464px,48px)}11.44%{transform:translate(464px,64px)}13.62%{transform:translate(592px,64px)}14.17%{transform:translate(592px,32px)}14.44%,43.87%{transform:translate(608px,32px)}14.71%{transform:translate(608px,16px)}14.99%{transform:translate(592px,16px)}16.35%{transform:translate(592px,96px)}17.17%,59.67%,74.93%{transform:translate(640px,96px)}17.44%{transform:translate(640px,80px)}17.71%,74.39%{transform:translate(656px,80px)}17.98%,46.87%{transform:translate(656px,64px)}18.8%{transform:translate(608px,64px)}19.89%,41.14%{transform:translate(608px,0)}20.16%,77.38%{transform:translate(624px,0)}20.44%{transform:translate(624px,-16px)}20.98%,42.23%{transform:translate(656px,-16px)}21.53%,42.78%{transform:translate(656px,16px)}21.8%,78.47%{transform:translate(672px,16px)}22.34%,46.32%{transform:translate(672px,48px)}22.62%{transform:translate(688px,48px)}22.89%{transform:translate(688px,64px)}23.43%{transform:translate(720px,64px)}23.98%{transform:translate(720px,32px)}24.8%{transform:translate(768px,32px)}25.07%{transform:translate(768px,48px)}26.16%{transform:translate(832px,48px)}27.25%{transform:translate(832px,-16px)}27.79%{transform:translate(800px,-16px)}28.07%,65.12%{transform:translate(800px,0)}28.34%{transform:translate(784px,0)}29.97%{transform:translate(784px,96px)}30.25%{transform:translate(768px,96px)}30.52%{transform:translate(768px,80px)}31.06%{transform:translate(736px,80px)}31.34%{transform:translate(736px,96px)}31.61%{transform:translate(720px,96px)}33.24%{transform:translate(720px,0)}33.79%,72.48%{transform:translate(688px,0)}34.06%{transform:translate(688px,-16px)}37.6%{transform:translate(480px,-16px)}38.15%{transform:translate(480px,16px)}38.42%{transform:translate(464px,16px)}38.69%{transform:translate(464px,0)}41.42%{transform:translate(608px,-16px)}43.05%{transform:translate(640px,16px)}43.32%{transform:translate(640px,32px)}44.69%{transform:translate(608px,80px)}45.78%{transform:translate(672px,80px)}46.59%,76.02%{transform:translate(656px,48px)}47.41%{transform:translate(624px,64px)}47.68%{transform:translate(624px,48px)}48.5%{transform:translate(576px,48px)}49.32%{transform:translate(576px,96px)}49.59%{transform:translate(560px,96px)}49.86%{transform:translate(560px,80px)}51.23%{transform:translate(480px,80px)}51.77%{transform:translate(480px,48px)}52.04%{transform:translate(496px,48px)}52.59%{transform:translate(496px,16px)}53.41%{transform:translate(448px,16px)}54.22%{transform:translate(448px,64px)}59.95%{transform:translate(640px,112px)}60.76%{transform:translate(688px,112px)}61.04%{transform:translate(688px,96px)}62.13%{transform:translate(752px,96px)}63.49%{transform:translate(752px,16px)}63.76%{transform:translate(736px,16px)}64.03%{transform:translate(736px,0)}65.4%{transform:translate(800px,16px)}65.94%{transform:translate(832px,16px)}67.03%{transform:translate(832px,80px)}67.3%,68.39%{transform:translate(816px,80px)}67.57%,82.29%{transform:translate(816px,96px)}67.85%{transform:translate(800px,96px)}68.12%{transform:translate(800px,80px)}68.66%{transform:translate(816px,64px)}68.94%{transform:translate(832px,64px)}70.03%{transform:translate(832px,0)}73.84%{transform:translate(688px,80px)}74.66%{transform:translate(656px,96px)}75.75%{transform:translate(640px,48px)}76.84%{transform:translate(656px,0)}77.66%{transform:translate(624px,16px)}79.84%{transform:translate(672px,96px)}83.38%{transform:translate(816px,32px)}89.92%{transform:translate(432px,32px)}90.74%{transform:translate(432px,80px)}91.01%{transform:translate(416px,80px)}91.28%{transform:translate(416px,64px)}91.55%{transform:translate(432px,64px)}92.64%{transform:translate(432px,0)}98.91%{transform:translate(64px,0)}99.18%{transform:translate(64px,-16px)}}@keyframes s3{0%,99.73%{transform:translate(48px,-16px)}.82%{transform:translate(0,-16px)}1.09%{transform:translate(0,0)}5.72%{transform:translate(272px,0)}6.81%{transform:translate(272px,64px)}55.31%,8.99%{transform:translate(400px,64px)}55.86%,9.54%{transform:translate(400px,96px)}10.35%{transform:translate(448px,96px)}11.17%{transform:translate(448px,48px)}11.44%{transform:translate(464px,48px)}11.72%{transform:translate(464px,64px)}13.9%{transform:translate(592px,64px)}14.44%{transform:translate(592px,32px)}14.71%,44.14%{transform:translate(608px,32px)}14.99%{transform:translate(608px,16px)}15.26%{transform:translate(592px,16px)}16.62%{transform:translate(592px,96px)}17.44%,59.95%,75.2%{transform:translate(640px,96px)}17.71%{transform:translate(640px,80px)}17.98%,74.66%{transform:translate(656px,80px)}18.26%,47.14%{transform:translate(656px,64px)}19.07%{transform:translate(608px,64px)}20.16%,41.42%{transform:translate(608px,0)}20.44%,77.66%{transform:translate(624px,0)}20.71%{transform:translate(624px,-16px)}21.25%,42.51%{transform:translate(656px,-16px)}21.8%,43.05%{transform:translate(656px,16px)}22.07%,78.75%{transform:translate(672px,16px)}22.62%,46.59%{transform:translate(672px,48px)}22.89%{transform:translate(688px,48px)}23.16%{transform:translate(688px,64px)}23.71%{transform:translate(720px,64px)}24.25%{transform:translate(720px,32px)}25.07%{transform:translate(768px,32px)}25.34%{transform:translate(768px,48px)}26.43%{transform:translate(832px,48px)}27.52%{transform:translate(832px,-16px)}28.07%{transform:translate(800px,-16px)}28.34%,65.4%{transform:translate(800px,0)}28.61%{transform:translate(784px,0)}30.25%{transform:translate(784px,96px)}30.52%{transform:translate(768px,96px)}30.79%{transform:translate(768px,80px)}31.34%{transform:translate(736px,80px)}31.61%{transform:translate(736px,96px)}31.88%{transform:translate(720px,96px)}33.51%{transform:translate(720px,0)}34.06%,72.75%{transform:translate(688px,0)}34.33%{transform:translate(688px,-16px)}37.87%{transform:translate(480px,-16px)}38.42%{transform:translate(480px,16px)}38.69%{transform:translate(464px,16px)}38.96%{transform:translate(464px,0)}41.69%{transform:translate(608px,-16px)}43.32%{transform:translate(640px,16px)}43.6%{transform:translate(640px,32px)}44.96%{transform:translate(608px,80px)}46.05%{transform:translate(672px,80px)}46.87%,76.29%{transform:translate(656px,48px)}47.68%{transform:translate(624px,64px)}47.96%{transform:translate(624px,48px)}48.77%{transform:translate(576px,48px)}49.59%{transform:translate(576px,96px)}49.86%{transform:translate(560px,96px)}50.14%{transform:translate(560px,80px)}51.5%{transform:translate(480px,80px)}52.04%{transform:translate(480px,48px)}52.32%{transform:translate(496px,48px)}52.86%{transform:translate(496px,16px)}53.68%{transform:translate(448px,16px)}54.5%{transform:translate(448px,64px)}60.22%{transform:translate(640px,112px)}61.04%{transform:translate(688px,112px)}61.31%{transform:translate(688px,96px)}62.4%{transform:translate(752px,96px)}63.76%{transform:translate(752px,16px)}64.03%{transform:translate(736px,16px)}64.31%{transform:translate(736px,0)}65.67%{transform:translate(800px,16px)}66.21%{transform:translate(832px,16px)}67.3%{transform:translate(832px,80px)}67.57%,68.66%{transform:translate(816px,80px)}67.85%,82.56%{transform:translate(816px,96px)}68.12%{transform:translate(800px,96px)}68.39%{transform:translate(800px,80px)}68.94%{transform:translate(816px,64px)}69.21%{transform:translate(832px,64px)}70.3%{transform:translate(832px,0)}74.11%{transform:translate(688px,80px)}74.93%{transform:translate(656px,96px)}76.02%{transform:translate(640px,48px)}77.11%{transform:translate(656px,0)}77.93%{transform:translate(624px,16px)}80.11%{transform:translate(672px,96px)}83.65%{transform:translate(816px,32px)}90.19%{transform:translate(432px,32px)}91.01%{transform:translate(432px,80px)}91.28%{transform:translate(416px,80px)}91.55%{transform:translate(416px,64px)}91.83%{transform:translate(432px,64px)}92.92%{transform:translate(432px,0)}99.18%{transform:translate(64px,0)}99.46%{transform:translate(64px,-16px)}}:root{--cb:#1b1f230a;--cs:purple;--ce:#ebedf0;--c0:#ebedf0;--c1:#9be9a8;--c2:#40c463;--c3:#30a14e;--c4:#216e39}@media (prefers-color-scheme:dark){:root{--cb:#1b1f230a;--cs:purple;--ce:#161b22;--c1:#01311f;--c2:#034525;--c3:#0f6d31;--c4:#00c647}}.c{shape-rendering:geometricPrecision;rx:2;ry:2;fill:var(--ce);stroke-width:1px;stroke:var(--cb);animation:none 36700ms linear infinite}.c.c0{fill:var(--c1);animation-name:c0}.c.c1{fill:var(--c4);animation-name:c1}.c.c2{fill:var(--c1);animation-name:c2}.c.c3,.c.c4{fill:var(--c4);animation-name:c3}.c.c4{animation-name:c4}.c.c5{fill:var(--c2);animation-name:c5}.c.c6{fill:var(--c4);animation-name:c6}.c.c7{fill:var(--c2);animation-name:c7}.c.c8,.c.c9{fill:var(--c1);animation-name:c8}.c.c9{animation-name:c9}.c.ca{fill:var(--c4);animation-name:ca}.c.cb{fill:var(--c2);animation-name:cb}.c.cc{fill:var(--c1);animation-name:cc}.c.cd,.c.ce,.c.cf{fill:var(--c2);animation-name:cd}.c.ce,.c.cf{animation-name:ce}.c.cf{animation-name:cf}.c.cg{fill:var(--c1);animation-name:cg}.c.ch{fill:var(--c2);animation-name:ch}.c.ci{fill:var(--c1);animation-name:ci}.c.cj{fill:var(--c2);animation-name:cj}.c.ck{fill:var(--c1);animation-name:ck}.c.cl,.c.cm,.c.cn{fill:var(--c1);animation-name:cl}.c.cm,.c.cn{animation-name:cm}.c.cn{animation-name:cn}.c.co,.c.cp,.c.cq{fill:var(--c1);animation-name:co}.c.cp,.c.cq{animation-name:cp}.c.cq{animation-name:cq}.c.cr{fill:var(--c4);animation-name:cr}.c.cs,.c.ct{fill:var(--c2);animation-name:cs}.c.ct{animation-name:ct}.c.cu,.c.cv{fill:var(--c1);animation-name:cu}.c.cv{animation-name:cv}.c.cw{fill:var(--c4);animation-name:cw}.c.cx{fill:var(--c1);animation-name:cx}.c.cy{fill:var(--c3);animation-name:cy}.c.c10,.c.cz{fill:var(--c1);animation-name:cz}.c.c10{animation-name:c10}.c.c11,.c.c12,.c.c13{fill:var(--c1);animation-name:c11}.c.c12,.c.c13{animation-name:c12}.c.c13{animation-name:c13}.c.c14{fill:var(--c4);animation-name:c14}.c.c15{fill:var(--c2);animation-name:c15}.c.c16,.c.c17{fill:var(--c1);animation-name:c16}.c.c17{animation-name:c17}.c.c18{fill:var(--c3);animation-name:c18}.c.c19,.c.c1a,.c.c1b{fill:var(--c1);animation-name:c19}.c.c1a,.c.c1b{animation-name:c1a}.c.c1b{animation-name:c1b}.c.c1c{fill:var(--c2);animation-name:c1c}.c.c1d{fill:var(--c1);animation-name:c1d}.c.c1e{fill:var(--c4);animation-name:c1e}.c.c1f,.c.c1g{fill:var(--c1);animation-name:c1f}.c.c1g{animation-name:c1g}.c.c1h{fill:var(--c3);animation-name:c1h}.c.c1i{fill:var(--c2);animation-name:c1i}.c.c1j,.c.c1k,.c.c1l{fill:var(--c1);animation-name:c1j}.c.c1k,.c.c1l{animation-name:c1k}.c.c1l{animation-name:c1l}.c.c1m{fill:var(--c2);animation-name:c1m}.c.c1n,.c.c1o{fill:var(--c1);animation-name:c1n}.c.c1o{animation-name:c1o}.c.c1p{fill:var(--c2);animation-name:c1p}.c.c1q{fill:var(--c1);animation-name:c1q}.c.c1r{fill:var(--c2);animation-name:c1r}.c.c1s,.c.c1t{fill:var(--c1);animation-name:c1s}.c.c1t{animation-name:c1t}.c.c1u,.c.c1v,.c.c1w{fill:var(--c1);animation-name:c1u}.c.c1v,.c.c1w{animation-name:c1v}.c.c1w{animation-name:c1w}.c.c1x{fill:var(--c2);animation-name:c1x}.c.c1y{fill:var(--c3);animation-name:c1y}.c.c1z{fill:var(--c2);animation-name:c1z}.c.c20{fill:var(--c4);animation-name:c20}.c.c21{fill:var(--c1);animation-name:c21}.c.c22{fill:var(--c3);animation-name:c22}.c.c23{fill:var(--c2);animation-name:c23}.c.c24{fill:var(--c1);animation-name:c24}.s,.u{animation:none linear 36700ms infinite}.u,.u.u0{transform-origin:0 0}.u{transform:scale(0,1)}.u.u0{fill:var(--c1);animation-name:u0}.u.u1{fill:var(--c2);animation-name:u1;transform-origin:462.5px 0}.u.u2{fill:var(--c1);animation-name:u2;transform-origin:473.6px 0}.u.u3{fill:var(--c2);animation-name:u3;transform-origin:484.6px 0}.u.u4{fill:var(--c3);animation-name:u4;transform-origin:682.8px 0}.u.u5{fill:var(--c4);animation-name:u5;transform-origin:737.9px 0}.s{shape-rendering:geometricPrecision;fill:var(--cs)}.s.s0{transform:translate(0,-16px);animation-name:s0}.s.s1{transform:translate(16px,-16px);animation-name:s1}.s.s2{transform:translate(32px,-16px);animation-name:s2}.s.s3{transform:translate(48px,-16px);animation-name:s3}</style><rect class="c" x="2" y="2" width="12" height="12"/><rect class="c" x="2" y="18" width="12" height="12"/><rect class="c" x="2" y="34" width="12" height="12"/><rect class="c" x="2" y="50" width="12" height="12"/><rect class="c" x="2" y="66" width="12" height="12"/><rect class="c" x="2" y="82" width="12" height="12"/><rect class="c" x="2" y="98" width="12" height="12"/><rect class="c" x="18" y="2" width="12" height="12"/><rect class="c" x="18" y="18" width="12" height="12"/><rect class="c" x="18" y="34" width="12" height="12"/><rect class="c" x="18" y="50" width="12" height="12"/><rect class="c" x="18" y="66" width="12" height="12"/><rect class="c" x="18" y="82" width="12" height="12"/><rect class="c" x="18" y="98" width="12" height="12"/><rect class="c" x="34" y="2" width="12" height="12"/><rect class="c" x="34" y="18" width="12" height="12"/><rect class="c" x="34" y="34" width="12" height="12"/><rect class="c" x="34" y="50" width="12" height="12"/><rect class="c" x="34" y="66" width="12" height="12"/><rect class="c" x="34" y="82" width="12" height="12"/><rect class="c" x="34" y="98" width="12" height="12"/><rect class="c" x="50" y="2" width="12" height="12"/><rect class="c" x="50" y="18" width="12" height="12"/><rect class="c" x="50" y="34" width="12" height="12"/><rect class="c" x="50" y="50" width="12" height="12"/><rect class="c" x="50" y="66" width="12" height="12"/><rect class="c" x="50" y="82" width="12" height="12"/><rect class="c" x="50" y="98" width="12" height="12"/><rect class="c" x="66" y="2" width="12" height="12"/><rect class="c" x="66" y="18" width="12" height="12"/><rect class="c" x="66" y="34" width="12" height="12"/><rect class="c" x="66" y="50" width="12" height="12"/><rect class="c" x="66" y="66" width="12" height="12"/><rect class="c" x="66" y="82" width="12" height="12"/><rect class="c" x="66" y="98" width="12" height="12"/><rect class="c" x="82" y="2" width="12" height="12"/><rect class="c" x="82" y="18" width="12" height="12"/><rect class="c" x="82" y="34" width="12" height="12"/><rect class="c" x="82" y="50" width="12" height="12"/><rect class="c" x="82" y="66" width="12" height="12"/><rect class="c" x="82" y="82" width="12" height="12"/><rect class="c" x="82" y="98" width="12" height="12"/><rect class="c" x="98" y="2" width="12" height="12"/><rect class="c" x="98" y="18" width="12" height="12"/><rect class="c" x="98" y="34" width="12" height="12"/><rect class="c" x="98" y="50" width="12" height="12"/><rect class="c" x="98" y="66" width="12" height="12"/><rect class="c" x="98" y="82" width="12" height="12"/><rect class="c" x="98" y="98" width="12" height="12"/><rect class="c" x="114" y="2" width="12" height="12"/><rect class="c" x="114" y="18" width="12" height="12"/><rect class="c" x="114" y="34" width="12" height="12"/><rect class="c" x="114" y="50" width="12" height="12"/><rect class="c" x="114" y="66" width="12" height="12"/><rect class="c" x="114" y="82" width="12" height="12"/><rect class="c" x="114" y="98" width="12" height="12"/><rect class="c" x="130" y="2" width="12" height="12"/><rect class="c" x="130" y="18" width="12" height="12"/><rect class="c" x="130" y="34" width="12" height="12"/><rect class="c" x="130" y="50" width="12" height="12"/><rect class="c" x="130" y="66" width="12" height="12"/><rect class="c" x="130" y="82" width="12" height="12"/><rect class="c" x="130" y="98" width="12" height="12"/><rect class="c" x="146" y="2" width="12" height="12"/><rect class="c" x="146" y="18" width="12" height="12"/><rect class="c" x="146" y="34" width="12" height="12"/><rect class="c" x="146" y="50" width="12" height="12"/><rect class="c" x="146" y="66" width="12" height="12"/><rect class="c" x="146" y="82" width="12" height="12"/><rect class="c" x="146" y="98" width="12" height="12"/><rect class="c" x="162" y="2" width="12" height="12"/><rect class="c" x="162" y="18" width="12" height="12"/><rect class="c" x="162" y="34" width="12" height="12"/><rect class="c" x="162" y="50" width="12" height="12"/><rect class="c" x="162" y="66" width="12" height="12"/><rect class="c" x="162" y="82" width="12" height="12"/><rect class="c" x="162" y="98" width="12" height="12"/><rect class="c" x="178" y="2" width="12" height="12"/><rect class="c" x="178" y="18" width="12" height="12"/><rect class="c" x="178" y="34" width="12" height="12"/><rect class="c" x="178" y="50" width="12" height="12"/><rect class="c" x="178" y="66" width="12" height="12"/><rect class="c" x="178" y="82" width="12" height="12"/><rect class="c" x="178" y="98" width="12" height="12"/><rect class="c" x="194" y="2" width="12" height="12"/><rect class="c" x="194" y="18" width="12" height="12"/><rect class="c" x="194" y="34" width="12" height="12"/><rect class="c" x="194" y="50" width="12" height="12"/><rect class="c" x="194" y="66" width="12" height="12"/><rect class="c" x="194" y="82" width="12" height="12"/><rect class="c" x="194" y="98" width="12" height="12"/><rect class="c" x="210" y="2" width="12" height="12"/><rect class="c" x="210" y="18" width="12" height="12"/><rect class="c" x="210" y="34" width="12" height="12"/><rect class="c" x="210" y="50" width="12" height="12"/><rect class="c" x="210" y="66" width="12" height="12"/><rect class="c" x="210" y="82" width="12" height="12"/><rect class="c" x="210" y="98" width="12" height="12"/><rect class="c" x="226" y="2" width="12" height="12"/><rect class="c" x="226" y="18" width="12" height="12"/><rect class="c" x="226" y="34" width="12" height="12"/><rect class="c" x="226" y="50" width="12" height="12"/><rect class="c" x="226" y="66" width="12" height="12"/><rect class="c" x="226" y="82" width="12" height="12"/><rect class="c" x="226" y="98" width="12" height="12"/><rect class="c" x="242" y="2" width="12" height="12"/><rect class="c" x="242" y="18" width="12" height="12"/><rect class="c" x="242" y="34" width="12" height="12"/><rect class="c" x="242" y="50" width="12" height="12"/><rect class="c" x="242" y="66" width="12" height="12"/><rect class="c" x="242" y="82" width="12" height="12"/><rect class="c" x="242" y="98" width="12" height="12"/><rect class="c" x="258" y="2" width="12" height="12"/><rect class="c" x="258" y="18" width="12" height="12"/><rect class="c" x="258" y="34" width="12" height="12"/><rect class="c" x="258" y="50" width="12" height="12"/><rect class="c" x="258" y="66" width="12" height="12"/><rect class="c" x="258" y="82" width="12" height="12"/><rect class="c" x="258" y="98" width="12" height="12"/><rect class="c" x="274" y="2" width="12" height="12"/><rect class="c" x="274" y="18" width="12" height="12"/><rect class="c" x="274" y="34" width="12" height="12"/><rect class="c" x="274" y="50" width="12" height="12"/><rect class="c c0" x="274" y="66" width="12" height="12"/><rect class="c" x="274" y="82" width="12" height="12"/><rect class="c" x="274" y="98" width="12" height="12"/><rect class="c" x="290" y="2" width="12" height="12"/><rect class="c" x="290" y="18" width="12" height="12"/><rect class="c" x="290" y="34" width="12" height="12"/><rect class="c" x="290" y="50" width="12" height="12"/><rect class="c" x="290" y="66" width="12" height="12"/><rect class="c" x="290" y="82" width="12" height="12"/><rect class="c" x="290" y="98" width="12" height="12"/><rect class="c" x="306" y="2" width="12" height="12"/><rect class="c" x="306" y="18" width="12" height="12"/><rect class="c" x="306" y="34" width="12" height="12"/><rect class="c" x="306" y="50" width="12" height="12"/><rect class="c" x="306" y="66" width="12" height="12"/><rect class="c" x="306" y="82" width="12" height="12"/><rect class="c" x="306" y="98" width="12" height="12"/><rect class="c" x="322" y="2" width="12" height="12"/><rect class="c" x="322" y="18" width="12" height="12"/><rect class="c" x="322" y="34" width="12" height="12"/><rect class="c" x="322" y="50" width="12" height="12"/><rect class="c" x="322" y="66" width="12" height="12"/><rect class="c" x="322" y="82" width="12" height="12"/><rect class="c" x="322" y="98" width="12" height="12"/><rect class="c" x="338" y="2" width="12" height="12"/><rect class="c" x="338" y="18" width="12" height="12"/><rect class="c" x="338" y="34" width="12" height="12"/><rect class="c" x="338" y="50" width="12" height="12"/><rect class="c" x="338" y="66" width="12" height="12"/><rect class="c" x="338" y="82" width="12" height="12"/><rect class="c" x="338" y="98" width="12" height="12"/><rect class="c" x="354" y="2" width="12" height="12"/><rect class="c" x="354" y="18" width="12" height="12"/><rect class="c" x="354" y="34" width="12" height="12"/><rect class="c" x="354" y="50" width="12" height="12"/><rect class="c" x="354" y="66" width="12" height="12"/><rect class="c" x="354" y="82" width="12" height="12"/><rect class="c" x="354" y="98" width="12" height="12"/><rect class="c" x="370" y="2" width="12" height="12"/><rect class="c" x="370" y="18" width="12" height="12"/><rect class="c" x="370" y="34" width="12" height="12"/><rect class="c" x="370" y="50" width="12" height="12"/><rect class="c" x="370" y="66" width="12" height="12"/><rect class="c" x="370" y="82" width="12" height="12"/><rect class="c" x="370" y="98" width="12" height="12"/><rect class="c" x="386" y="2" width="12" height="12"/><rect class="c" x="386" y="18" width="12" height="12"/><rect class="c" x="386" y="34" width="12" height="12"/><rect class="c" x="386" y="50" width="12" height="12"/><rect class="c" x="386" y="66" width="12" height="12"/><rect class="c" x="386" y="82" width="12" height="12"/><rect class="c" x="386" y="98" width="12" height="12"/><rect class="c" x="402" y="2" width="12" height="12"/><rect class="c" x="402" y="18" width="12" height="12"/><rect class="c" x="402" y="34" width="12" height="12"/><rect class="c" x="402" y="50" width="12" height="12"/><rect class="c" x="402" y="66" width="12" height="12"/><rect class="c" x="402" y="82" width="12" height="12"/><rect class="c" x="402" y="98" width="12" height="12"/><rect class="c" x="418" y="2" width="12" height="12"/><rect class="c" x="418" y="18" width="12" height="12"/><rect class="c" x="418" y="34" width="12" height="12"/><rect class="c" x="418" y="50" width="12" height="12"/><rect class="c" x="418" y="66" width="12" height="12"/><rect class="c c1" x="418" y="82" width="12" height="12"/><rect class="c c2" x="418" y="98" width="12" height="12"/><rect class="c c3" x="434" y="2" width="12" height="12"/><rect class="c" x="434" y="18" width="12" height="12"/><rect class="c" x="434" y="34" width="12" height="12"/><rect class="c c4" x="434" y="50" width="12" height="12"/><rect class="c c5" x="434" y="66" width="12" height="12"/><rect class="c c6" x="434" y="82" width="12" height="12"/><rect class="c" x="434" y="98" width="12" height="12"/><rect class="c" x="450" y="2" width="12" height="12"/><rect class="c" x="450" y="18" width="12" height="12"/><rect class="c c7" x="450" y="34" width="12" height="12"/><rect class="c c8" x="450" y="50" width="12" height="12"/><rect class="c" x="450" y="66" width="12" height="12"/><rect class="c" x="450" y="82" width="12" height="12"/><rect class="c" x="450" y="98" width="12" height="12"/><rect class="c" x="466" y="2" width="12" height="12"/><rect class="c" x="466" y="18" width="12" height="12"/><rect class="c" x="466" y="34" width="12" height="12"/><rect class="c" x="466" y="50" width="12" height="12"/><rect class="c" x="466" y="66" width="12" height="12"/><rect class="c" x="466" y="82" width="12" height="12"/><rect class="c" x="466" y="98" width="12" height="12"/><rect class="c" x="482" y="2" width="12" height="12"/><rect class="c c9" x="482" y="18" width="12" height="12"/><rect class="c ca" x="482" y="34" width="12" height="12"/><rect class="c cb" x="482" y="50" width="12" height="12"/><rect class="c cc" x="482" y="66" width="12" height="12"/><rect class="c cd" x="482" y="82" width="12" height="12"/><rect class="c" x="482" y="98" width="12" height="12"/><rect class="c" x="498" y="2" width="12" height="12"/><rect class="c ce" x="498" y="18" width="12" height="12"/><rect class="c" x="498" y="34" width="12" height="12"/><rect class="c cf" x="498" y="50" width="12" height="12"/><rect class="c cg" x="498" y="66" width="12" height="12"/><rect class="c" x="498" y="82" width="12" height="12"/><rect class="c" x="498" y="98" width="12" height="12"/><rect class="c" x="514" y="2" width="12" height="12"/><rect class="c" x="514" y="18" width="12" height="12"/><rect class="c" x="514" y="34" width="12" height="12"/><rect class="c" x="514" y="50" width="12" height="12"/><rect class="c" x="514" y="66" width="12" height="12"/><rect class="c" x="514" y="82" width="12" height="12"/><rect class="c" x="514" y="98" width="12" height="12"/><rect class="c" x="530" y="2" width="12" height="12"/><rect class="c" x="530" y="18" width="12" height="12"/><rect class="c" x="530" y="34" width="12" height="12"/><rect class="c" x="530" y="50" width="12" height="12"/><rect class="c" x="530" y="66" width="12" height="12"/><rect class="c" x="530" y="82" width="12" height="12"/><rect class="c" x="530" y="98" width="12" height="12"/><rect class="c" x="546" y="2" width="12" height="12"/><rect class="c" x="546" y="18" width="12" height="12"/><rect class="c" x="546" y="34" width="12" height="12"/><rect class="c" x="546" y="50" width="12" height="12"/><rect class="c" x="546" y="66" width="12" height="12"/><rect class="c" x="546" y="82" width="12" height="12"/><rect class="c" x="546" y="98" width="12" height="12"/><rect class="c" x="562" y="2" width="12" height="12"/><rect class="c" x="562" y="18" width="12" height="12"/><rect class="c" x="562" y="34" width="12" height="12"/><rect class="c" x="562" y="50" width="12" height="12"/><rect class="c" x="562" y="66" width="12" height="12"/><rect class="c" x="562" y="82" width="12" height="12"/><rect class="c" x="562" y="98" width="12" height="12"/><rect class="c" x="578" y="2" width="12" height="12"/><rect class="c" x="578" y="18" width="12" height="12"/><rect class="c" x="578" y="34" width="12" height="12"/><rect class="c ch" x="578" y="50" width="12" height="12"/><rect class="c ci" x="578" y="66" width="12" height="12"/><rect class="c" x="578" y="82" width="12" height="12"/><rect class="c cj" x="578" y="98" width="12" height="12"/><rect class="c" x="594" y="2" width="12" height="12"/><rect class="c" x="594" y="18" width="12" height="12"/><rect class="c ck" x="594" y="34" width="12" height="12"/><rect class="c cl" x="594" y="50" width="12" height="12"/><rect class="c cm" x="594" y="66" width="12" height="12"/><rect class="c cn" x="594" y="82" width="12" height="12"/><rect class="c co" x="594" y="98" width="12" height="12"/><rect class="c" x="610" y="2" width="12" height="12"/><rect class="c cp" x="610" y="18" width="12" height="12"/><rect class="c cq" x="610" y="34" width="12" height="12"/><rect class="c" x="610" y="50" width="12" height="12"/><rect class="c" x="610" y="66" width="12" height="12"/><rect class="c" x="610" y="82" width="12" height="12"/><rect class="c" x="610" y="98" width="12" height="12"/><rect class="c" x="626" y="2" width="12" height="12"/><rect class="c cr" x="626" y="18" width="12" height="12"/><rect class="c cs" x="626" y="34" width="12" height="12"/><rect class="c ct" x="626" y="50" width="12" height="12"/><rect class="c cu" x="626" y="66" width="12" height="12"/><rect class="c" x="626" y="82" width="12" height="12"/><rect class="c cv" x="626" y="98" width="12" height="12"/><rect class="c cw" x="642" y="2" width="12" height="12"/><rect class="c" x="642" y="18" width="12" height="12"/><rect class="c cx" x="642" y="34" width="12" height="12"/><rect class="c cy" x="642" y="50" width="12" height="12"/><rect class="c cz" x="642" y="66" width="12" height="12"/><rect class="c c10" x="642" y="82" width="12" height="12"/><rect class="c c11" x="642" y="98" width="12" height="12"/><rect class="c c12" x="658" y="2" width="12" height="12"/><rect class="c c13" x="658" y="18" width="12" height="12"/><rect class="c c14" x="658" y="34" width="12" height="12"/><rect class="c c15" x="658" y="50" width="12" height="12"/><rect class="c c16" x="658" y="66" width="12" height="12"/><rect class="c c17" x="658" y="82" width="12" height="12"/><rect class="c c18" x="658" y="98" width="12" height="12"/><rect class="c" x="674" y="2" width="12" height="12"/><rect class="c c19" x="674" y="18" width="12" height="12"/><rect class="c c1a" x="674" y="34" width="12" height="12"/><rect class="c c1b" x="674" y="50" width="12" height="12"/><rect class="c c1c" x="674" y="66" width="12" height="12"/><rect class="c c1d" x="674" y="82" width="12" height="12"/><rect class="c c1e" x="674" y="98" width="12" height="12"/><rect class="c c1f" x="690" y="2" width="12" height="12"/><rect class="c" x="690" y="18" width="12" height="12"/><rect class="c" x="690" y="34" width="12" height="12"/><rect class="c" x="690" y="50" width="12" height="12"/><rect class="c c1g" x="690" y="66" width="12" height="12"/><rect class="c c1h" x="690" y="82" width="12" height="12"/><rect class="c c1i" x="690" y="98" width="12" height="12"/><rect class="c" x="706" y="2" width="12" height="12"/><rect class="c" x="706" y="18" width="12" height="12"/><rect class="c" x="706" y="34" width="12" height="12"/><rect class="c" x="706" y="50" width="12" height="12"/><rect class="c" x="706" y="66" width="12" height="12"/><rect class="c" x="706" y="82" width="12" height="12"/><rect class="c" x="706" y="98" width="12" height="12"/><rect class="c" x="722" y="2" width="12" height="12"/><rect class="c" x="722" y="18" width="12" height="12"/><rect class="c c1j" x="722" y="34" width="12" height="12"/><rect class="c c1k" x="722" y="50" width="12" height="12"/><rect class="c" x="722" y="66" width="12" height="12"/><rect class="c" x="722" y="82" width="12" height="12"/><rect class="c c1l" x="722" y="98" width="12" height="12"/><rect class="c" x="738" y="2" width="12" height="12"/><rect class="c c1m" x="738" y="18" width="12" height="12"/><rect class="c c1n" x="738" y="34" width="12" height="12"/><rect class="c" x="738" y="50" width="12" height="12"/><rect class="c" x="738" y="66" width="12" height="12"/><rect class="c" x="738" y="82" width="12" height="12"/><rect class="c c1o" x="738" y="98" width="12" height="12"/><rect class="c" x="754" y="2" width="12" height="12"/><rect class="c" x="754" y="18" width="12" height="12"/><rect class="c" x="754" y="34" width="12" height="12"/><rect class="c" x="754" y="50" width="12" height="12"/><rect class="c c1p" x="754" y="66" width="12" height="12"/><rect class="c c1q" x="754" y="82" width="12" height="12"/><rect class="c" x="754" y="98" width="12" height="12"/><rect class="c c1r" x="770" y="2" width="12" height="12"/><rect class="c" x="770" y="18" width="12" height="12"/><rect class="c" x="770" y="34" width="12" height="12"/><rect class="c c1s" x="770" y="50" width="12" height="12"/><rect class="c" x="770" y="66" width="12" height="12"/><rect class="c" x="770" y="82" width="12" height="12"/><rect class="c c1t" x="770" y="98" width="12" height="12"/><rect class="c c1u" x="786" y="2" width="12" height="12"/><rect class="c" x="786" y="18" width="12" height="12"/><rect class="c" x="786" y="34" width="12" height="12"/><rect class="c" x="786" y="50" width="12" height="12"/><rect class="c" x="786" y="66" width="12" height="12"/><rect class="c" x="786" y="82" width="12" height="12"/><rect class="c c1v" x="786" y="98" width="12" height="12"/><rect class="c c1w" x="802" y="2" width="12" height="12"/><rect class="c" x="802" y="18" width="12" height="12"/><rect class="c" x="802" y="34" width="12" height="12"/><rect class="c" x="802" y="50" width="12" height="12"/><rect class="c" x="802" y="66" width="12" height="12"/><rect class="c" x="802" y="82" width="12" height="12"/><rect class="c c1x" x="802" y="98" width="12" height="12"/><rect class="c c1y" x="818" y="2" width="12" height="12"/><rect class="c c1z" x="818" y="18" width="12" height="12"/><rect class="c c20" x="818" y="34" width="12" height="12"/><rect class="c c21" x="818" y="50" width="12" height="12"/><rect class="c c22" x="818" y="66" width="12" height="12"/><rect class="c" x="818" y="82" width="12" height="12"/><rect class="c c23" x="818" y="98" width="12" height="12"/><rect class="c" x="834" y="2" width="12" height="12"/><rect class="c c24" x="834" y="18" width="12" height="12"/><rect class="c" x="834" y="34" width="12" height="12"/><rect class="u u0" height="12" width="463.1" x="0.0" y="144"/><rect class="u u1" height="12" width="11.6" x="462.5" y="144"/><rect class="u u2" height="12" width="11.6" x="473.6" y="144"/><rect class="u u3" height="12" width="198.8" x="484.6" y="144"/><rect class="u u4" height="12" width="55.7" x="682.8" y="144"/><rect class="u u5" height="12" width="110.7" x="737.9" y="144"/><rect class="s s0" x="0.8" y="0.8" width="14.4" height="14.4" rx="4.5" ry="4.5"/><rect class="s s1" x="1.8" y="1.8" width="12.3" height="12.3" rx="4.1" ry="4.1"/><rect class="s s2" x="2.6" y="2.6" width="10.8" height="10.8" rx="3.6" ry="3.6"/><rect class="s s3" x="3.0" y="3.0" width="9.9" height="9.9" rx="3.3" ry="3.3"/></svg>